<?xml version="1.0" encoding="utf-8"?>
<!-- Designed by Vexels.com - 2020 All Rights Reserved - https://vexels.com/terms-and-conditions/  -->
<svg version="1.1" id="Capa_1" xmlns="http://www.w3.org/2000/svg" xmlns:xlink="http://www.w3.org/1999/xlink" x="0px" y="0px"
	 viewBox="0 0 1200 1200" enable-background="new 0 0 1200 1200" xml:space="preserve">
<g>
	<path d="M988.234,514.167c-0.235,1.582-0.019,3.226,0.676,4.705l0.249,0.553c1.612,11.057,0.303,20.84-3.899,29.09
		c-0.354,0.7-0.738,1.395-1.147,2.082L828.356,419.793l2.68-27.757l46.014-13.222C939.505,427.113,979.829,476.206,988.234,514.167z
		 M768.402,444.911c0.849,0.091,1.682,0.172,2.501,0.246c22.68,2.032,39.97-1.516,49.843-10.059l152.163,127.788
		c-20.343,15.354-58.607,20.376-109.164,14.145c-22.823-2.812-47.628-7.872-73.788-15.04L768.402,444.911z M772.118,556.857
		c-44.862-13.642-92.723-33.168-139.153-56.801c-46.049-23.441-89.671-50.407-126.897-78.403l115.374-45.534
		c16.658,15.356,37.569,29.621,60.757,41.424c23.031,11.724,46.712,20.204,68.81,24.663L772.118,556.857z M860.371,366.321
		l-27.623,7.937l2.458-25.476C843.832,354.549,852.242,360.411,860.371,366.321z M746.85,96.061C761.315,67.65,790.168,50,822.15,50
		c13.337,0,26.157,3.084,38.104,9.166c41.436,21.092,57.985,71.963,36.896,113.399c-10.219,20.074-27.642,34.966-49.061,41.935
		c-21.417,6.967-44.267,5.178-64.343-5.039c-14.097-7.175-25.795-18.046-33.886-31.475c-0.343-0.964-0.849-1.828-1.479-2.531
		c-2.672-4.804-4.881-9.862-6.568-15.051C734.847,138.983,736.637,116.133,746.85,96.061z M740.263,193.573
		c9.319,12.877,21.614,23.398,35.949,30.695c16.639,8.468,34.5,12.201,53.28,10.73L811.58,420.671
		c-3.856,5.369-15.882,10.027-39.191,7.937c-3.978-0.356-8.269-0.926-12.753-1.695c-0.013-0.003-0.03-0.005-0.046-0.008
		c-22.098-3.797-46.255-12.154-69.856-24.168c-23.578-12.001-44.529-26.597-60.616-42.233c-3.283-3.192-6.29-6.345-8.937-9.373
		c-15.389-17.604-18.715-30.081-16.641-36.357L740.263,193.573z M648.96,252.302l-21.366,18.94l-15.936-32.077
		C623.914,243.137,636.388,247.53,648.96,252.302z M386.491,243.719c4.125-8.106,11.29-14.789,21.299-19.869
		c0.384-0.151,0.754-0.331,1.107-0.538c35.431-17.212,101.2-13.866,180.882,9.158l24.932,50.192l-20.365,18.052
		c-89.864-21.641-185.504-45.811-209.4-53.529C385.408,245.99,385.923,244.834,386.491,243.719z M483.493,290.562
		c41.931,10.525,84.045,20.761,102.98,25.341c-1.068,12.996,6.238,29.051,21.198,46.161c0.352,0.4,0.706,0.803,1.068,1.209
		l-117.915,46.537c-21.318-17.013-40.107-34.178-55.891-51.06c-34.129-36.505-52.548-69.855-52.8-95.171
		C394.444,267.53,421.169,274.918,483.493,290.562z M313.806,300.835c0.128-0.658,0.177-1.332,0.147-1.927
		c-0.054-1.928-0.437-42.639,59.164-65.359c-0.503,0.865-0.98,1.743-1.435,2.632c-16.841,33.088,1.31,80.646,51.114,133.915
		c47.884,51.215,119.847,102.628,202.634,144.768c82.785,42.139,166.698,70.073,236.284,78.656
		c14.743,1.817,28.707,2.739,41.501,2.739c41.336-0.003,70.892-9.259,87.869-27.512c0.281-0.243,0.53-0.498,0.752-0.763
		c0.127-0.151,0.254-0.316,0.379-0.492c3.194-3.632,5.833-7.48,7.85-11.444c0.573-1.122,1.106-2.266,1.601-3.426
		c17.742,62.717-10.468,90.37-11.744,91.579c-0.235,0.208-24.199,20.714-82.744,23.499c-56.628,2.718-157.193-10.887-314.777-91.098
		c-157.153-80-224.607-151.746-253.523-197.847C309.079,331.246,313.775,301.028,313.806,300.835z M244.078,307.421
		c5.26-10.333,15.055-19.651,28.335-26.955c0.258-0.128,0.506-0.265,0.741-0.414c9.351-5.041,20.387-9.059,32.481-11.862
		c-7.588,14.75-8.263,27.063-8.295,30.4c-0.894,6.023-3.853,38.88,27.235,88.631c29.971,47.961,99.457,122.317,260.291,204.184
		c151.36,77.049,251.611,93.22,309.055,93.218c4.762,0,9.489-0.111,14.051-0.327c64.31-3.058,90.338-25.251,93.05-27.731
		c0.441-0.398,8.505-7.788,14.973-23.191c3.783,8.083,6.736,15.752,8.826,22.926c0.089,0.511,0.23,1.014,0.419,1.514
		c5.149,18.583,4.608,34.202-1.612,46.422c-10.024,19.684-32.217,32.59-65.979,38.367c-0.598,0.032-1.195,0.13-1.779,0.289
		c-31.498,5.089-72.455,3.591-118.488-4.324c-0.116-0.024-0.238-0.043-0.365-0.065h0.003
		c-82.29-14.205-179.164-48.275-272.779-95.927c-26.241-13.359-52.001-27.65-76.557-42.474c-0.055-0.035-0.111-0.068-0.165-0.1
		c-50.516-30.506-95.593-62.936-133.981-96.394c-0.214-0.207-0.438-0.402-0.673-0.585c-16.782-14.662-32.148-29.431-45.677-43.901
		c-24.387-26.083-42.663-50.896-54.333-73.765c-0.012-0.041-0.024-0.078-0.038-0.118c-0.256-0.759-0.617-1.466-1.08-2.115
		C236.634,352.569,234.057,327.103,244.078,307.421z M428.035,696.002c-53.721-31.528-100.761-63.978-140.016-96.598
		c-5.3-41.057,42.999-71.253,58.558-79.848c35.646,30.643,76.766,60.4,122.401,88.58
		C454.094,621.668,426.714,652.595,428.035,696.002z M483.869,617.19c23.438,13.997,47.919,27.504,72.839,40.189
		c31.866,16.222,64.307,30.998,96.487,43.951c0.933,16.768,1.728,77.731-34.762,90.892c-32.401-13.926-66.39-30.03-106.707-50.549
		c-22.827-11.62-45.054-23.564-66.115-35.527C438.355,659.547,471.942,627.087,483.869,617.19z M670.087,707.96
		c55.335,21.222,109.978,36.96,158.934,45.771c3.902,16.355,15.154,75.316-18.596,98.485
		c-53.383-9.186-109.943-26.165-172.43-51.776C667.581,778.828,670.555,731.316,670.087,707.96z M149.774,381.921
		c0.126-0.684,0.166-1.378,0.124-1.984c-0.124-2.668-1.709-60.386,85.347-89.617c-2.3,3.068-4.294,6.257-5.976,9.561
		c-11.723,23.029-10.199,51.269,4.509,84.018c-14.916,7.876-46.663,29.569-64.199,77.788
		C145.031,412.857,149.662,382.604,149.774,381.921z M182.481,484.551c-0.608-0.971-1.202-1.935-1.786-2.892
		c14.117-53.245,46.192-75.439,60.473-82.922c12.385,22.608,30.483,46.706,53.883,71.733c11.601,12.407,24.474,24.994,38.358,37.509
		c-19.162,11.457-57.244,38.794-61.924,77.277C233.049,551.354,203.142,517.524,182.481,484.551z M301.951,1150l15.798-210.21
		c22.631,18.35,47.306,34.367,73.514,47.709c21.228,10.806,43.385,19.759,66.026,26.69L301.951,1150z M398.801,972.697
		c-34.159-17.39-65.351-39.299-92.709-65.116c-102.413-96.644-142.248-237.59-105.604-370.612
		c20.247,24.024,44.87,48.272,73.357,72.233c0.695,0.871,1.556,1.59,2.535,2.12c43.469,36.249,96.288,72.239,157.018,106.984
		c0.381,0.262,0.783,0.492,1.202,0.687c22.1,12.618,45.511,25.227,69.589,37.482c106.748,54.337,232.786,110.549,362.783,119.245
		C755.482,1014.119,560.794,1055.155,398.801,972.697z M908.802,860.239c-0.003,0-0.003,0-0.003,0
		c-7.655,0.138-15.695,0.057-23.902-0.216c-0.871-0.168-1.76-0.195-2.637-0.081c-16.503-0.635-33.51-2.128-50.741-4.454
		c25.322-28.934,19.757-76.276,15.178-98.831c24.492,3.678,47.352,5.538,68.096,5.538c0.014,0,0.03,0,0.041,0
		c13.891-0.003,27.025-0.857,39.11-2.547c7.588,12.439,26.23,53.439-21.217,99.867C923.716,859.993,915.508,860.128,908.802,860.239
		z M1040.6,809.406c-11.303,26.214-38.68,41.969-83.458,47.915c34.951-43.696,23.034-82.796,13.972-100.819
		c33.448-7.618,56.073-22.639,67.317-44.732c1.509-2.961,2.772-6.052,3.786-9.267C1051.682,735.464,1055.703,774.396,1040.6,809.406
		z"/>
</g>
</svg>
