<?xml version="1.0" encoding="utf-8"?>
<!-- Designed by Vexels.com - 2020 All Rights Reserved - https://vexels.com/terms-and-conditions/  -->
<svg version="1.1" id="Capa_1" xmlns="http://www.w3.org/2000/svg" xmlns:xlink="http://www.w3.org/1999/xlink" x="0px" y="0px"
	 viewBox="0 0 1200 1200" enable-background="new 0 0 1200 1200" xml:space="preserve">
<g>
	<path d="M335.777,917.739c0,21.062,17.135,38.197,38.196,38.197c21.061,0,38.196-17.135,38.196-38.197
		c0-21.06-17.135-38.195-38.196-38.195C352.912,879.544,335.777,896.679,335.777,917.739z"/>
	<path d="M616.783,680.753h24.516V463.641h-88.002v345.512c16.644-15.217,36.409-26.33,58.081-32.597l-2.447-87.73
		c-0.054-2.12,0.758-4.193,2.227-5.7C612.627,681.617,614.677,680.753,616.783,680.753z"/>
	<path d="M373.973,866.452c5.497,0,10.783,0.891,15.751,2.499l31.475-38.632c-14.056-7.623-30.144-11.958-47.226-11.958
		c-27.849,0-53.043,11.53-71.103,30.048l41.404,27.595C352.665,870.015,362.901,866.452,373.973,866.452z"/>
	<path d="M226.994,917.739c0-22.39,5.168-44.534,15.014-64.589c-18.143-4.823-35.238-20.354-49.395-44.94L50,1026.723h225.489
		C244.836,999.002,226.994,959.485,226.994,917.739z M95.956,1007.179c-1.466,0-2.9-0.409-4.144-1.184
		c-1.741-1.061-3.001-2.79-3.493-4.835c-0.491-2.043-0.156-4.155,0.944-5.948l68.989-112.523c1.115-1.808,2.855-3.061,4.907-3.541
		c2.039-0.478,4.144-0.136,5.921,0.969c1.773,1.094,3.018,2.813,3.507,4.843c0.491,2.043,0.156,4.155-0.944,5.948l-68.988,112.523
		C101.231,1005.745,98.666,1007.179,95.956,1007.179z M210.07,899.198l-37.702,108.711c-1.092,3.155-4.075,5.28-7.421,5.28
		c-0.862,0-1.715-0.141-2.533-0.419c-2.03-0.706-3.623-2.125-4.538-4.012c-0.915-1.89-1.038-4.025-0.348-6.007l37.702-108.711
		c1.404-4.076,5.884-6.255,9.975-4.853c0.009,0.003,0.019,0.005,0.028,0.008C209.326,890.621,211.495,895.106,210.07,899.198z"/>
	<path d="M322.685,917.739c0-12.363,4.399-23.719,11.712-32.585l-40.108-26.731c-12.364,16.567-19.694,37.101-19.694,59.316
		c0,24.31,8.787,46.597,23.334,63.885l31.464-38.62C325.145,935.536,322.685,926.926,322.685,917.739z"/>
	<path d="M614.024,917.739c0,21.062,17.135,38.197,38.196,38.197c21.061,0,38.196-17.135,38.196-38.197
		c0-21.06-17.135-38.195-38.196-38.195C631.159,879.544,614.024,896.679,614.024,917.739z"/>
	<path d="M373.974,786.472c-72.383,0-131.269,58.886-131.269,131.266c0,72.383,58.887,131.269,131.269,131.269
		c72.381,0,131.267-58.886,131.267-131.269C505.242,845.359,446.355,786.472,373.974,786.472z M459.273,990.919
		c-0.013,0.021-0.02,0.043-0.033,0.064c-0.34,0.522-0.75,0.967-1.198,1.357c-20.618,23.209-50.657,37.871-84.07,37.871
		c-31.207,0-59.477-12.784-79.872-33.38c-0.024-0.019-0.051-0.032-0.076-0.051c-0.432-0.352-0.787-0.759-1.105-1.187
		c-19.433-20.225-31.417-47.658-31.417-77.854c0-27.23,9.732-52.226,25.893-71.705c0.011-0.017,0.017-0.036,0.028-0.053
		c0.304-0.456,0.667-0.843,1.055-1.196c20.645-24.157,51.301-39.515,85.494-39.515c22.011,0,42.549,6.381,59.909,17.354
		c0.472,0.223,0.931,0.485,1.354,0.83c0.041,0.034,0.07,0.076,0.11,0.11c30.734,20.097,51.097,54.793,51.097,94.176
		C486.444,945.668,476.187,971.232,459.273,990.919z"/>
	<path d="M652.22,866.452c5.497,0,10.784,0.891,15.752,2.499l31.474-38.632c-14.056-7.624-30.143-11.958-47.226-11.958
		c-27.848,0-53.043,11.53-71.103,30.048l41.404,27.595C630.913,870.015,641.148,866.452,652.22,866.452z"/>
	<path d="M705.986,448.551c0-12.994-10.572-23.566-23.566-23.566h-1.845c-12.994,0-23.566,10.572-23.566,23.566v232.203h48.977
		V448.551z"/>
	<path d="M432.336,837.376l-30.461,37.388c14.056,9.157,23.386,24.985,23.386,42.974c0,13.312-5.141,25.417-13.487,34.543
		l40.597,26.421c13.13-16.847,20.98-37.999,20.98-60.963C473.351,884.737,457.168,855.46,432.336,837.376z"/>
	<path d="M373.973,969.028c-14.251,0-27.153-5.852-36.458-15.268l-30.458,37.386c17.672,16.125,41.164,25.973,66.915,25.973
		c27.078,0,51.65-10.899,69.592-28.525l-42.284-27.518C393.363,966.084,384.015,969.028,373.973,969.028z"/>
	<path d="M394.414,283.473l6.592,18.141c13.398-3.208,43.69-8.772,92.517-8.772c32.122,0,72.272,2.409,120.901,9.481l7.647-23.576
		c-2.47-5.362-30.901-20.309-112.021-20.309c-81.555,0-113.85,14.052-117.93,20.12l2.059,4.351
		C394.266,283.095,394.345,283.283,394.414,283.473z"/>
	<path d="M472.898,463.641h-88.002v307.571c32.679,2.45,63.781,15.943,88.002,37.975V463.641z"/>
	<path d="M369.185,448.551c0-12.994-10.572-23.566-23.566-23.566h-1.845c-12.994,0-23.566,10.572-23.566,23.566v332.398
		c15.631-6.183,32.048-9.574,48.977-10.111V448.551z"/>
	<path d="M609.506,317.49c-115.655-16.501-181.928-5.726-203.089-0.986l22.999,63.292c16.801-2.158,35.94-4.357,61.853-4.357
		c24.788,0,55.766,2.01,96.85,7.995L609.506,317.49z"/>
	<path d="M107.924,733.388h15.725c-21.722-66.335-6.712-137.048,0.624-164.019h-16.348c-4.77,2.649-15.737,29.282-15.737,82.009
		S103.153,730.738,107.924,733.388z"/>
	<path d="M165.547,733.388c-5.502-25.798-8.454-53.803-8.454-82.01c0-28.58,2.653-56.125,7.892-82.009H140.59
		c-5.975,20.621-24.672,96.262-0.35,164.019H165.547z"/>
	<path d="M553.291,447.931h13.907l16.001-49.332c-77.197-11.033-117.233-7.556-148.282-3.663l19.257,52.995h18.729
		c0.332-21.372,17.821-38.656,39.271-38.656h1.847C535.47,409.274,552.959,426.559,553.291,447.931z"/>
	<path d="M260.508,824.427c12.145-14.719,27.185-27.082,43.989-36.141V463.641h-15.639c-42.75,0-78.867,85.973-78.867,187.737
		C209.991,724.249,230.517,793.734,260.508,824.427z"/>
	<path d="M250.055,838.813c0.339-0.527,0.684-1.056,1.036-1.588c-34.168-33.145-56.81-106.578-56.81-185.847
		c0-83.87,23.287-156.891,57.662-187.737h-0.272c-42.75,0-78.867,85.973-78.867,187.737
		C172.803,747.848,208.503,833.425,250.055,838.813z"/>
	<path d="M1110.409,739.514H657.01v31.326c52.826,1.721,99.542,31.885,124.03,76.342h20.61
		c25.227-45.793,74.041-76.421,128.818-76.421c35.088,0,69.079,12.619,95.712,35.53c24.919,21.436,41.953,50.548,48.372,82.468
		h35.857V739.514z"/>
	<path d="M930.468,786.472c-72.381,0-131.269,58.886-131.269,131.266c0,72.383,58.888,131.269,131.269,131.269
		s131.268-58.886,131.268-131.269C1061.736,845.359,1002.849,786.472,930.468,786.472z M1015.769,990.917
		c-0.014,0.021-0.021,0.045-0.034,0.066c-0.341,0.523-0.751,0.968-1.2,1.358c-20.618,23.208-50.656,37.87-84.068,37.87
		c-31.205,0-59.475-12.784-79.871-33.378c-0.025-0.02-0.053-0.032-0.077-0.053c-0.433-0.353-0.788-0.76-1.106-1.189
		c-19.432-20.224-31.416-47.657-31.416-77.852c0-27.231,9.732-52.228,25.895-71.708c0.011-0.016,0.016-0.035,0.027-0.051
		c0.303-0.455,0.664-0.841,1.051-1.193c20.645-24.159,51.303-39.518,85.497-39.518c22.012,0,42.55,6.381,59.909,17.354
		c0.472,0.223,0.931,0.485,1.354,0.83c0.041,0.034,0.071,0.076,0.111,0.111c30.733,20.097,51.095,54.793,51.095,94.176
		C1042.937,945.667,1032.682,971.23,1015.769,990.917z"/>
	<path d="M512.174,424.985c-12.993,0-23.566,10.572-23.566,23.566v377.308c3.386,4.219,6.562,8.658,9.482,13.256h30.015
		c2.919-4.595,6.096-9.037,9.482-13.256V448.551c0-12.994-10.572-23.566-23.566-23.566H512.174z"/>
	<path d="M988.83,837.376l-30.461,37.388c14.056,9.157,23.387,24.985,23.387,42.974c0,13.313-5.141,25.417-13.487,34.543
		l40.597,26.42c13.129-16.847,20.98-37.999,20.98-60.963C1029.845,884.737,1013.662,855.46,988.83,837.376z"/>
	<path d="M626.995,772.973c4.725-0.818,9.506-1.409,14.304-1.764v-39.55c0-4.332,3.524-7.855,7.855-7.855h469.11
		c4.331,0,7.855,3.524,7.855,7.855v164.956c0,4.332-3.524,7.855-7.855,7.855h-41.435c0.409,4.462,0.616,8.904,0.616,13.269
		c0,2.601-0.069,5.211-0.206,7.814H1150V696.464H624.861L626.995,772.973z"/>
	<path d="M1125.526,190.808c-22.05-18.164-68.046-39.816-161.96-39.816c-138.199,0-182.423,47.196-195.163,67.869h379.061
		C1144.519,211.779,1138.346,201.369,1125.526,190.808z"/>
	<path d="M1079.121,541.87H848.012c-12.994,0-23.566,10.572-23.566,23.566v49.018c0,12.995,10.572,23.566,23.566,23.566h231.109
		c12.994,0,23.566-10.571,23.566-23.566v-49.018C1102.687,552.443,1092.115,541.87,1079.121,541.87z"/>
	<path d="M763.884,234.572v446.181H1150V234.572H763.884z M978.045,325.38c0-21.657,17.619-39.276,39.277-39.276h54.044
		c21.657,0,39.277,17.619,39.277,39.276v123.171c0,21.657-17.619,39.276-39.277,39.276h-54.044
		c-21.657,0-39.277-17.619-39.277-39.276V325.38z M816.489,325.38c0-21.657,17.62-39.276,39.277-39.276h54.043
		c21.657,0,39.276,17.619,39.276,39.276v123.171c0,21.657-17.619,39.276-39.276,39.276h-54.043
		c-21.657,0-39.277-17.619-39.277-39.276V325.38z M1118.397,614.454c0,21.658-17.619,39.276-39.276,39.276H848.012
		c-21.657,0-39.277-17.618-39.277-39.276v-49.018c0-21.657,17.619-39.276,39.277-39.276h231.109
		c21.657,0,39.276,17.619,39.276,39.276V614.454z"/>
	<path d="M1017.322,472.116h54.044c12.994,0,23.566-10.572,23.566-23.566V325.38c0-12.994-10.572-23.566-23.566-23.566h-54.044
		c-12.994,0-23.566,10.572-23.566,23.566v123.171C993.756,461.544,1004.328,472.116,1017.322,472.116z"/>
	<path d="M855.766,472.116h54.043c12.994,0,23.566-10.572,23.566-23.566V325.38c0-12.994-10.572-23.566-23.566-23.566h-54.043
		c-12.994,0-23.566,10.572-23.566,23.566v123.171C832.2,461.544,842.772,472.116,855.766,472.116z"/>
	<path d="M879.179,917.739c0-12.363,4.399-23.718,11.712-32.584l-40.109-26.732c-12.364,16.567-19.694,37.101-19.694,59.316
		c0,24.31,8.787,46.597,23.334,63.885l31.465-38.621C881.639,935.536,879.179,926.926,879.179,917.739z"/>
	<rect x="721.697" y="463.641" width="26.477" height="217.112"/>
	<path d="M652.22,969.028c-14.251,0-27.153-5.852-36.457-15.268l-30.458,37.386c17.672,16.125,41.164,25.973,66.915,25.973
		c27.078,0,51.65-10.899,69.592-28.525l-42.283-27.518C671.611,966.084,662.262,969.028,652.22,969.028z"/>
	<path d="M652.22,786.472c-72.382,0-131.268,58.886-131.268,131.266c0,72.383,58.886,131.269,131.268,131.269
		c72.381,0,131.268-58.886,131.268-131.269C783.488,845.359,724.602,786.472,652.22,786.472z M737.522,990.917
		c-0.014,0.021-0.02,0.045-0.034,0.066c-0.34,0.523-0.751,0.968-1.2,1.358c-20.617,23.208-50.656,37.87-84.068,37.87
		c-31.206,0-59.476-12.784-79.872-33.38c-0.024-0.019-0.051-0.032-0.076-0.051c-0.432-0.352-0.787-0.759-1.105-1.187
		c-19.433-20.225-31.417-47.658-31.417-77.854c0-27.23,9.732-52.226,25.893-71.705c0.011-0.017,0.017-0.036,0.028-0.053
		c0.304-0.456,0.667-0.844,1.055-1.197c20.645-24.157,51.301-39.514,85.494-39.514c22.012,0,42.549,6.381,59.908,17.353
		c0.472,0.223,0.932,0.485,1.355,0.83c0.042,0.034,0.071,0.076,0.111,0.111c30.733,20.097,51.095,54.793,51.095,94.176
		C764.69,945.667,754.434,971.23,737.522,990.917z"/>
	<path d="M710.583,837.376l-30.461,37.388c14.056,9.157,23.386,24.985,23.386,42.974c0,13.312-5.141,25.417-13.487,34.543
		l40.597,26.42c13.129-16.847,20.98-37.999,20.98-60.963C751.598,884.737,735.415,855.46,710.583,837.376z"/>
	<path d="M600.932,917.739c0-12.363,4.399-23.719,11.712-32.585l-40.108-26.731c-12.364,16.567-19.693,37.101-19.693,59.316
		c0,24.31,8.787,46.597,23.334,63.885l31.464-38.62C603.392,935.536,600.932,926.926,600.932,917.739z"/>
	<path d="M930.468,866.452c5.497,0,10.784,0.891,15.752,2.499l31.474-38.632c-14.056-7.624-30.144-11.958-47.226-11.958
		c-27.849,0-53.043,11.529-71.104,30.047l41.404,27.596C909.16,870.015,919.396,866.452,930.468,866.452z"/>
	<path d="M930.468,969.028c-14.251,0-27.153-5.852-36.458-15.269l-30.459,37.386c17.673,16.125,41.165,25.973,66.916,25.973
		c27.078,0,51.65-10.899,69.592-28.525l-42.283-27.517C949.858,966.084,940.509,969.028,930.468,969.028z"/>
	<path d="M892.271,917.739c0,21.062,17.135,38.197,38.196,38.197s38.196-17.135,38.196-38.197c0-21.06-17.135-38.195-38.196-38.195
		S892.271,896.679,892.271,917.739z"/>
</g>
</svg>
